<?xml version="1.0" encoding="utf-8"?>
<!-- Generator: Adobe Illustrator 22.0.1, SVG Export Plug-In . SVG Version: 6.00 Build 0)  -->
<svg version="1.1" xmlns="http://www.w3.org/2000/svg" xmlns:xlink="http://www.w3.org/1999/xlink" x="0px" y="0px"
	 viewBox="0 0 200 200" style="enable-background:new 0 0 200 200;" xml:space="preserve">
<style type="text/css">
	.st0{clip-path:url(#SVGID_2_);}
	.st1{fill:#F05455;}
	.st2{fill:url(#SVGID_3_);}
	.st3{fill:#DC2427;}
	.st4{fill:#A51E22;}
	.st5{fill:#DC2226;}
	.st6{fill:#F3F3F3;}
	.st7{fill:#B4B4B4;}
</style>
<g id="Layer_1">
	<title>angular</title>
</g>
<g id="Layer_2">
	<g>
		<defs>
			<circle id="SVGID_1_" cx="99.6" cy="100.2" r="100"/>
		</defs>
		<clipPath id="SVGID_2_">
			<use xlink:href="#SVGID_1_"  style="overflow:visible;"/>
		</clipPath>
		<g class="st0">
			<path class="st1" d="M0,0h200v200H0V0z"/>
			
				<linearGradient id="SVGID_3_" gradientUnits="userSpaceOnUse" x1="95.595" y1="113.989" x2="204.847" y2="4.737" gradientTransform="matrix(1 0 0 -1 0 199.89)">
				<stop  offset="0" style="stop-color:#CC3434"/>
				<stop  offset="1" style="stop-color:#CC3434;stop-opacity:0"/>
			</linearGradient>
			<path class="st2" d="M175.5,46L36.4,145.1L89.9,200H200V71C200,71,175.5,46,175.5,46z"/>
			<path class="st3" d="M99.8,20L24.5,46.5l11.9,98.6L99.8,180l63.8-35.4L175.5,46L99.8,20z"/>
			<path class="st4" d="M175.5,46L99.8,20l0.2,160l63.7-35.4C163.6,144.6,175.5,46,175.5,46z"/>
			<path class="st5" d="M32.9,52.1l10.2,88.2l56.5,31.3V28.4L32.9,52.1z"/>
			<path class="st6" d="M118.4,104.7l-18.8,8.8H79.7l-9.3,23.3L53,137.1L99.6,33.6L118.4,104.7z M116.6,100.2L99.7,66.8L85.9,99.7
				h13.7L116.6,100.2z"/>
			<path class="st7" d="M99.6,33.6l0.1,33.2l15.7,32.9H99.6l0,13.8l21.9,0l10.2,23.7l16.6,0.3L99.6,33.6z"/>
		</g>
	</g>
</g>
</svg>
