<?xml version="1.0" encoding="utf-8"?>
<!-- Generator: Adobe Illustrator 22.0.1, SVG Export Plug-In . SVG Version: 6.00 Build 0)  -->
<svg version="1.1" xmlns="http://www.w3.org/2000/svg" xmlns:xlink="http://www.w3.org/1999/xlink" x="0px" y="0px"
	 viewBox="0 0 200 200" style="enable-background:new 0 0 200 200;" xml:space="preserve">
<style type="text/css">
	.st0{clip-path:url(#SVGID_2_);}
	.st1{fill:#5690CC;}
	.st2{fill:url(#SVGID_3_);}
	.st3{fill:#1673B6;}
	.st4{fill:#35A9DB;}
	.st5{fill:#FFFFFF;}
	.st6{fill:#EBEBEB;}
</style>
<g id="Layer_1">
	<title>css</title>
</g>
<g id="Layer_2">
	<g>
		<defs>
			<circle id="SVGID_1_" cx="100" cy="100" r="100"/>
		</defs>
		<clipPath id="SVGID_2_">
			<use xlink:href="#SVGID_1_"  style="overflow:visible;"/>
		</clipPath>
		<g class="st0">
			<path class="st1" d="M0,0h200v200H0V0z"/>
			
				<linearGradient id="SVGID_3_" gradientUnits="userSpaceOnUse" x1="102.0052" y1="111.3552" x2="206.7353" y2="6.6253" gradientTransform="matrix(1 0 0 -1 0 199.89)">
				<stop  offset="0" style="stop-color:#256DB4"/>
				<stop  offset="1" style="stop-color:#256DB4;stop-opacity:0"/>
			</linearGradient>
			<path class="st2" d="M200,51.1L170.5,20L42.3,164l34.1,36H200V51.1z"/>
			<path class="st3" d="M42.3,164L29.5,20h141.1l-12.9,144l-57.8,16L42.3,164z"/>
			<path class="st4" d="M100,167.8l46.7-12.9l11-123H100V167.8L100,167.8z"/>
			<path class="st5" d="M100,83.9h23.4l1.6-18.1h-25V48.2h44.3l-0.4,4.7l-4.3,48.7H100V83.9z"/>
			<path class="st6" d="M100.1,129.8L100.1,129.8l-19.7-5.3l-1.3-14.1H61.4l2.5,27.7l36.2,10l0.1,0V129.8L100.1,129.8z"/>
			<path class="st5" d="M121.9,100.9l-2.1,23.7l-19.7,5.3v18.4l36.2-10l0.3-3l3.1-34.3C139.6,100.9,121.9,100.9,121.9,100.9z"/>
			<path class="st6" d="M100.1,48.2v17.7H57.4l-0.4-4l-0.8-9l-0.4-4.7C55.8,48.2,100.1,48.2,100.1,48.2z M100,83.9v17.7H80.6l-0.4-4
				l-0.8-9L79,83.9C79,83.9,100,83.9,100,83.9z"/>
		</g>
	</g>
</g>
</svg>
