<?xml version="1.0" encoding="utf-8"?>
<!-- Generator: Adobe Illustrator 22.0.1, SVG Export Plug-In . SVG Version: 6.00 Build 0)  -->
<svg version="1.1" id="Layer_1" xmlns="http://www.w3.org/2000/svg" xmlns:xlink="http://www.w3.org/1999/xlink" x="0px" y="0px"
	 viewBox="0 0 200 200" style="enable-background:new 0 0 200 200;" xml:space="preserve">
<style type="text/css">
	.st0{fill:#FF7C00;}
	.st1{fill:url(#SVGID_1_);}
	.st2{fill:#FF7F18;}
</style>
<g id="Layer_1_1_">
	<title>node</title>
</g>
<circle class="st0" cx="100" cy="100" r="99.3"/>
<radialGradient id="SVGID_1_" cx="78.8955" cy="77.8403" r="77.1646" fx="72.7741" fy="72.6212" gradientUnits="userSpaceOnUse">
	<stop  offset="0" style="stop-color:#423325;stop-opacity:0.98"/>
	<stop  offset="0.9982" style="stop-color:#1C0A00"/>
</radialGradient>
<circle class="st1" cx="100" cy="100" r="91.9"/>
<path class="st2" d="M91.5,105.1c-2.6-10.2-8.7-32.5-11-43.3h-0.2c-1.9,10.8-6.8,29-10.7,43.3H91.5z M132.9,75.6
	c0-0.7,0.3-1.1,1.1-1.1h14.5c0.7,0,1.1,0.3,1.1,1.1v72.7c0,0.7-0.2,1.1-1.1,1.1h-14.3c-0.9,0-1.2-0.5-1.2-1.2L132.9,75.6L132.9,75.6
	L132.9,75.6z M131.9,54.7c0-5.9,4.1-9.4,9.4-9.4c5.6,0,9.4,3.8,9.4,9.4c0,6.1-4,9.4-9.6,9.4C135.8,64.1,131.9,60.8,131.9,54.7z
	 M64.9,120.8l-7.3,27.6c-0.2,0.7-0.5,0.9-1.4,0.9H42.7c-0.9,0-1.1-0.3-0.9-1.4l26.2-91.5c0.5-1.7,0.7-3.1,0.9-7.6
	c0-0.6,0.3-0.9,0.7-0.9h19.3c0.6,0,0.9,0.2,1.1,0.9l29.3,99.4c0.2,0.7,0,1.2-0.7,1.2h-15.3c-0.7,0-1.2-0.2-1.4-0.8l-7.6-27.7H64.9
	L64.9,120.8z"/>
</svg>
