<?xml version="1.0" encoding="utf-8"?>
<!-- Generator: Adobe Illustrator 22.0.1, SVG Export Plug-In . SVG Version: 6.00 Build 0)  -->
<svg version="1.1" xmlns="http://www.w3.org/2000/svg" xmlns:xlink="http://www.w3.org/1999/xlink" x="0px" y="0px"
	 viewBox="0 0 200 200" style="enable-background:new 0 0 200 200;" xml:space="preserve">
<style type="text/css">
	.st0{clip-path:url(#SVGID_2_);fill:#333333;}
	.st1{clip-path:url(#SVGID_2_);fill:url(#SVGID_3_);}
	.st2{clip-path:url(#SVGID_2_);fill:#8EC74E;}
</style>
<g id="Layer_1">
	<title>node</title>
</g>
<g id="Layer_2">
	<g>
		<defs>
			<circle id="SVGID_1_" cx="100" cy="100.9" r="100"/>
		</defs>
		<clipPath id="SVGID_2_">
			<use xlink:href="#SVGID_1_"  style="overflow:visible;"/>
		</clipPath>
		<path class="st0" d="M0,0h200v200H0V0z"/>
		
			<linearGradient id="SVGID_3_" gradientUnits="userSpaceOnUse" x1="75.2315" y1="123.6205" x2="199.481" y2="-0.629" gradientTransform="matrix(1 0 0 -1 0 199.89)">
			<stop  offset="0" style="stop-color:#232323"/>
			<stop  offset="1" style="stop-color:#232323;stop-opacity:0"/>
		</linearGradient>
		<path class="st1" d="M170.5,59.4l-3.2,40.6l-26.1-23.5l-9.3-0.3l-9.9-5.5l-15.1,0.7l-6.6,3.6l-11,7.4l-8.9-11.4L77,81l-0.7,36.3
			l-2,22.2l-9,12.3l-14,0.6l-21-10.5L86.8,200H200V90.1L170.5,59.4L170.5,59.4z"/>
		<path class="st2" d="M93.4,21.7c4.1-2.3,9-2.3,13.1,0c19.9,11.3,39.9,22.5,59.8,33.8c3.8,2.2,6.2,6.2,6.2,10.6v67.8
			c-0.1,4.6-2.6,8.7-6.7,10.8c-19.9,11.2-39.7,22.4-59.6,33.6c-4.2,2.3-9.2,2.2-13.2-0.4c-6-3.5-11.9-6.9-17.9-10.3
			c-1.3-0.6-2.5-1.4-3.5-2.5c0.8-1,2.1-1.2,3.2-1.6c2.5-0.9,4.8-2,7.1-3.3c0.6-0.3,1.3-0.3,1.8,0.1c5.1,2.9,10.1,5.9,15.3,8.8
			c1.1,0.6,2.2-0.2,3.1-0.7c19.5-11,39-22,58.5-33c0.7-0.4,1.1-1.1,1.1-1.9c0-22.4,0-44.7,0-67.1c0.1-0.9-0.4-1.7-1.2-2.1
			C140.8,53.2,121,42,101.2,30.9c-0.7-0.5-1.6-0.5-2.3,0C79,42,59.2,53.2,39.4,64.4c-0.8,0.3-1.3,1.2-1.3,2.1c0,22.4,0,44.7,0,67.1
			c-0.1,0.8,0.4,1.5,1.1,1.9c5.3,3,10.6,6,15.9,9c3,1.6,6.6,2.6,9.9,1.3c2.9-1.1,4.9-3.9,4.9-7.1c0-22.2,0-44.5,0-66.7
			c0-0.9,0.7-1.7,1.6-1.7c0.1,0,0.1,0,0.2,0c2.5,0,5.1,0,7.6,0c1,0,1.7,0.9,1.7,1.8c0,0.1,0,0.1,0,0.2c0,22.4,0,44.7,0,67.1
			c0,6-2.4,12.5-8,15.4c-6.8,3.5-15.2,2.8-21.9-0.6c-5.8-2.9-11.4-6.3-17.1-9.4c-4.1-2.1-6.6-6.3-6.7-10.9V66.1
			c0-4.5,2.5-8.6,6.4-10.7C53.7,44.1,73.6,32.9,93.4,21.7z"/>
		<path class="st2" d="M110.8,68.7c8.7-0.6,17.9-0.3,25.7,3.9c6,3.3,9.4,10.1,9.5,16.8c-0.2,0.9-1.1,1.4-2,1.3c-2.5,0-5,0-7.5,0
			c-1-0.1-1.8-0.9-1.8-1.9c-0.7-3.2-2.5-6.4-5.5-7.9c-4.6-2.3-10-2.2-15.1-2.2c-3.7,0.2-7.7,0.5-10.8,2.7c-2.3,1.8-3.2,4.9-2.3,7.6
			c0.8,1.9,3,2.5,4.8,3.1c10.4,2.7,21.5,2.5,31.8,6.1c4.2,1.5,8.4,4.3,9.8,8.8c1.9,6,1.1,13.1-3.2,17.8c-3.4,3.9-8.4,6.1-13.4,7.2
			c-6.7,1.4-13.5,1.6-20.3,0.9c-6.3-0.7-12.9-2.4-17.8-6.7c-4.1-3.8-6.3-9.2-6-14.8c0.1-0.9,0.9-1.6,1.9-1.5c2.5,0,5.1,0,7.6,0
			c1,0,1.8,0.8,1.8,1.7c0,0,0,0,0,0c0.5,3.1,1.6,6.3,4.3,8.1c5.1,3.3,11.6,3.1,17.5,3.2c4.9-0.2,10.4-0.3,14.3-3.5
			c2-2,2.8-4.8,2.2-7.6c-0.6-2.2-3-3.3-5-4c-10.3-3.3-21.5-2.1-31.7-5.8c-4.1-1.5-8.2-4.2-9.7-8.5c-2.2-6-1.2-13.5,3.5-18.1
			C97.9,71.1,104.5,69.3,110.8,68.7L110.8,68.7z"/>
	</g>
</g>
</svg>
