<?xml version="1.0" encoding="utf-8"?>
<!-- Generator: Adobe Illustrator 22.0.1, SVG Export Plug-In . SVG Version: 6.00 Build 0)  -->
<svg version="1.1" id="Layer_1" xmlns="http://www.w3.org/2000/svg" xmlns:xlink="http://www.w3.org/1999/xlink" x="0px" y="0px"
	 viewBox="0 0 200 200" style="enable-background:new 0 0 200 200;" xml:space="preserve">
<style type="text/css">
	.st0{fill:#34C4F0;}
	.st1{fill:url(#SVGID_1_);}
	.st2{fill:#31C5F0;}
</style>
<g id="Layer_1_1_">
	<title>node</title>
</g>
<circle class="st0" cx="100" cy="100" r="99.3"/>
<radialGradient id="SVGID_1_" cx="71.4363" cy="65.9956" r="91.9" fx="67.6805" fy="61.9301" gradientUnits="userSpaceOnUse">
	<stop  offset="0" style="stop-color:#34364E;stop-opacity:0.98"/>
	<stop  offset="1" style="stop-color:#0C0824"/>
</radialGradient>
<circle class="st1" cx="100" cy="100" r="91.9"/>
<path class="st2" d="M138.5,88.2c-6.9,0-9.3,3.5-9.3,6.4c0,3.1,1.6,5.3,10.8,10.1c13.7,6.6,18,13,18,22.3c0,14-10.6,21.5-25,21.5
	c-7.6,0-14.1-1.6-17.9-3.8c-0.6-0.3-0.7-0.7-0.7-1.4v-12.8c0-0.9,0.4-1.1,1-0.7c5.5,3.6,11.8,5.1,17.5,5.1c6.9,0,9.8-2.9,9.8-6.8
	c0-3.1-2-5.9-10.8-10.5c-12.4-5.9-17.5-12-17.5-22c0-11.3,8.8-20.6,24.1-20.6c7.5,0,12.7,1.1,15.6,2.4c0.7,0.4,0.9,1.1,0.9,1.7v12
	c0,0.7-0.4,1.1-1.3,0.9C149.8,89.7,144.2,88.2,138.5,88.2L138.5,88.2z M63.4,98.6c2,0.2,3.6,0.2,7.1,0.2c10.2,0,19.8-3.6,19.8-17.5
	c0-11.1-6.9-16.7-18.5-16.7c-3.5,0-6.8,0.2-8.4,0.3V98.6z M47.9,52.3c0-0.6,1.2-1,1.9-1c5.6-0.3,13.9-0.4,22.5-0.4
	c24.2,0,33.6,13.3,33.6,30.2c0,22.2-16.1,31.7-35.8,31.7c-3.3,0-4.5-0.2-6.8-0.2V146c0,0.7-0.3,1-1,1H49c-0.7,0-1-0.3-1-1L47.9,52.3
	L47.9,52.3z"/>
</svg>
