<?xml version="1.0" encoding="utf-8"?>
<!-- Generator: Adobe Illustrator 22.0.1, SVG Export Plug-In . SVG Version: 6.00 Build 0)  -->
<svg version="1.1" id="Layer_1" xmlns="http://www.w3.org/2000/svg" xmlns:xlink="http://www.w3.org/1999/xlink" x="0px" y="0px"
	 viewBox="0 0 200 200" style="enable-background:new 0 0 200 200;" xml:space="preserve">
<style type="text/css">
	.st0{fill:#EA77FF;}
	.st1{fill:url(#SVGID_1_);}
	.st2{fill:#E579FF;}
</style>
<g id="Layer_1_1_">
	<title>node</title>
</g>
<circle class="st0" cx="100" cy="100" r="99.3"/>
<radialGradient id="SVGID_1_" cx="75.5899" cy="71.8345" r="91.9" fx="72.3554" fy="69.0624" gradientUnits="userSpaceOnUse">
	<stop  offset="0" style="stop-color:#4B2D4F;stop-opacity:0.98"/>
	<stop  offset="1" style="stop-color:#180024"/>
</radialGradient>
<circle class="st1" cx="100" cy="100" r="91.9"/>
<path class="st2" d="M128.1,90.6c0-1.2,0-4-0.5-9.5c0-0.8,0.1-1,0.8-1.3c6-2.5,20.1-6.8,36-6.8c0.8,0,1.2,0.2,1.2,1v14.3
	c0,0.8-0.3,1-1.1,1c-6.2-0.3-15.1,0.5-18.6,2v62c0,0.8-0.3,1.2-1.2,1.2h-15.4c-0.8,0-1.2-0.3-1.2-1.2L128.1,90.6L128.1,90.6z
	 M65.2,99.6c2.3,0.2,4,0.2,8,0.2c11.5,0,22.3-4,22.3-19.7c0-12.5-7.7-18.8-20.8-18.8c-3.9,0-7.7,0.2-9.4,0.3L65.2,99.6L65.2,99.6z
	 M47.8,47.3c0-0.7,0.2-1.2,1-1.2c6.3-0.3,15.5-0.5,25.3-0.5c27.2,0,39.1,14.9,39.1,34.1c0,25-18.1,35.7-40.3,35.7
	c-3.7,0-5-0.2-7.7-0.2v37.8c0,0.8-0.3,1.2-1.2,1.2H48.9c-0.8,0-1.2-0.3-1.2-1.2L47.8,47.3L47.8,47.3L47.8,47.3z"/>
</svg>
