<?xml version="1.0" encoding="utf-8"?>
<!-- Generator: Adobe Illustrator 22.0.1, SVG Export Plug-In . SVG Version: 6.00 Build 0)  -->
<svg version="1.1" id="Layer_1" xmlns="http://www.w3.org/2000/svg" xmlns:xlink="http://www.w3.org/1999/xlink" x="0px" y="0px"
	 viewBox="0 0 200 200" style="enable-background:new 0 0 200 200;" xml:space="preserve">
<style type="text/css">
	.st0{fill:url(#SVGID_1_);}
	.st1{fill:#FFAE00;}
	.st2{fill:#EC6C00;}
	.st3{fill:#FFEFB4;}
	.st4{fill:#FED305;}
</style>
<radialGradient id="SVGID_1_" cx="785.9168" cy="644.5504" r="99.3" gradientTransform="matrix(1 0 0 1 0 -642)" gradientUnits="userSpaceOnUse">
	<stop  offset="0" style="stop-color:#FFB269"/>
	<stop  offset="1" style="stop-color:#FF7C00"/>
</radialGradient>
<circle class="st0" cx="814.2" cy="29.2" r="99.3"/>
<g id="Layer_1_1_">
	<title>node</title>
</g>
<circle cx="100" cy="100" r="99.3"/>
<g id="Page-1">
	<g id="Sketch-Flat-Logo" transform="translate(-9.000000, -28.000000)">
		<g id="Group" transform="translate(9.000000, 28.000000)">
			<g id="Base">
				<polygon id="Polygon" class="st1" points="814.2,104.7 739.6,18 771.9,-25.8 814.2,-30.3 856.4,-25.8 888.8,18 				"/>
			</g>
			<g id="Bottom-Back" transform="translate(0.000000, 160.000000)">
				<polygon id="Polygon_1_" class="st2" points="814.2,-55.3 739.6,-142 888.8,-142 				"/>
			</g>
			<g id="Bottom-Mid" transform="translate(100.000000, 160.000000)">
				<polygon id="Polygon_2_" class="st1" points="714.2,-55.3 669.8,-142 758.6,-142 				"/>
			</g>
			<g id="Top-Mid" transform="translate(100.000000, 0.000000)">
				<polygon id="Polygon_3_" class="st3" points="714.2,-30.3 669.8,18 758.6,18 				"/>
			</g>
			<g id="Top-Side-Left" transform="translate(0.000000, 15.000000)">
				<polygon id="Polygon_4_" class="st1" points="771.9,-40.8 755.3,-18.7 739.6,3 770.1,3 				"/>
			</g>
			
				<g id="Top-Side-Right" transform="translate(440.500000, 87.500000) scale(-1, 1) translate(-440.500000, -87.500000) translate(387.000000, 15.000000)">
				<polygon id="Polygon_5_" class="st1" points="-362.4,-40.8 -379.1,-18.7 -394.8,3 -364.3,3 				"/>
			</g>
			<g id="Top-Left" transform="translate(100.000000, 0.000000)">
				<polygon id="Polygon_6_" class="st4" points="671.9,-25.8 669.8,18 714.2,-30.3 				"/>
			</g>
			<g id="Top-Right" transform="translate(247.000000, 0.000000)">
				<polygon id="Polygon_7_" class="st4" points="609.4,-25.8 611.6,18 567.2,-30.3 				"/>
			</g>
		</g>
	</g>
</g>
</svg>
