<?xml version="1.0" encoding="utf-8"?>
<!-- Generator: Adobe Illustrator 22.0.1, SVG Export Plug-In . SVG Version: 6.00 Build 0)  -->
<svg version="1.1" xmlns="http://www.w3.org/2000/svg" xmlns:xlink="http://www.w3.org/1999/xlink" x="0px" y="0px"
	 viewBox="0 0 200 200" style="enable-background:new 0 0 200 200;" xml:space="preserve">
<style type="text/css">
	.st0{fill:url(#SVGID_1_);}
	.st1{fill:url(#SVGID_2_);}
	.st2{fill:url(#SVGID_3_);}
	.st3{fill:url(#SVGID_4_);}
	.st4{fill:url(#SVGID_5_);}
	.st5{display:none;}
	.st6{display:inline;fill:#D291FF;}
	.st7{display:inline;}
	.st8{display:inline;fill:#EA77FF;}
	.st9{display:inline;fill:#2A0034;}
	.st10{display:inline;fill:#1F0040;}
	.st11{font-family:'OpenSans-Regular';}
	.st12{font-size:117.4175px;}
</style>
<g id="Layer_1">
	<title>node</title>
	<g id="_x32_iqIEF_1_">
		
			<image style="overflow:visible;" width="750" height="750" id="_x32_iqIEF" xlink:href="8690A50CB69E138A.jpg"  transform="matrix(0.2667 0 0 0.2667 -208.8575 0)">
		</image>
	</g>
	
		<radialGradient id="SVGID_1_" cx="62.8091" cy="59.618" r="172.5868" fx="232.3237" fy="27.1984" gradientTransform="matrix(0.9984 0 0 1 0.3178 0)" gradientUnits="userSpaceOnUse">
		<stop  offset="0" style="stop-color:#F1B203"/>
		<stop  offset="1" style="stop-color:#E5EC08"/>
	</radialGradient>
	<ellipse class="st0" cx="99.8" cy="100" rx="99.8" ry="100"/>
	<radialGradient id="SVGID_2_" cx="92.2816" cy="85.57" r="94.6646" gradientUnits="userSpaceOnUse">
		<stop  offset="0" style="stop-color:#2E617A"/>
		<stop  offset="1" style="stop-color:#142A35"/>
	</radialGradient>
	<circle class="st1" cx="100" cy="100" r="94.7"/>
	<radialGradient id="SVGID_3_" cx="93.7491" cy="72.727" r="50.0582" fx="142.9162" fy="63.3238" gradientUnits="userSpaceOnUse">
		<stop  offset="0" style="stop-color:#F1B203"/>
		<stop  offset="1" style="stop-color:#E5EC08"/>
	</radialGradient>
	<path class="st2" d="M155.8,63c0,14.2-12.5,25.6-26.7,24.3c-3.7-0.3-7.3-1.5-10.5-3.4c-2.4-1.5-6.1-2.9-8.4-3.9
		c-6.4-3-15.5-1.5-20.9,2.1c-10.7,7.1-13.8,20.7-27.5,24.1c-14.1,3.4-28.5-6.7-30.1-21.1c-1.6-14.3,10.6-28,24.9-28
		c7.3,0,12,5.1,17.9,7.3c6.8,2.5,15.2,3.2,21.5-0.5c14.6-8.7,12.6-24.2,32.5-25.1C142.9,38,155.8,48.6,155.8,63z"/>
	
		<radialGradient id="SVGID_4_" cx="105.7732" cy="118.4573" r="38.0267" fx="143.123" fy="111.3141" gradientUnits="userSpaceOnUse">
		<stop  offset="0" style="stop-color:#F1B203"/>
		<stop  offset="1" style="stop-color:#E5EC08"/>
	</radialGradient>
	<path class="st3" d="M152.4,110.8c0,11.1-9.4,20.1-20,19.1c-2.8-0.3-5.5-1.2-7.9-2.7c-1.8-1.1-4.6-2.3-6.3-3.1
		c-4.8-2.3-11.7-1.2-15.7,1.7c-8.1,5.6-10.4,16.3-20.7,18.9c-10.6,2.7-21.4-5.2-22.6-16.5c-1.2-11.2,7.9-22,18.7-22
		c5.5,0,9,4,13.4,5.7c5.1,2,11.4,2.5,16.2-0.4c11-6.8,9.4-18.9,24.4-19.7C142.8,91.2,152.4,99.5,152.4,110.8z"/>
	<radialGradient id="SVGID_5_" cx="96.8092" cy="160.1835" r="13.0558" fx="109.6326" fy="157.731" gradientUnits="userSpaceOnUse">
		<stop  offset="0" style="stop-color:#F1B203"/>
		<stop  offset="1" style="stop-color:#E5EC08"/>
	</radialGradient>
	<circle class="st4" cx="96.8" cy="160.2" r="13.1"/>
</g>
<g id="Layer_2" class="st5">
	<circle class="st6" cx="100" cy="100" r="99.3"/>
	<g id="v1JFf8_1_" class="st7">
		
			<image style="overflow:visible;" width="186" height="186" id="v1JFf8" xlink:href="8690A50CB69E1389.jpg"  transform="matrix(1.0753 0 0 1.1001 -253.8849 195.5205)">
		</image>
	</g>
	<rect x="-221.8" y="-62.6" class="st8" width="198.5" height="198.5"/>
	<rect x="-214.4" y="-55.3" class="st9" width="183.8" height="183.8"/>
	<circle class="st10" cx="100" cy="100" r="91.9"/>
	<text transform="matrix(1 0 0 1 31.0305 135.8985)" class="st6 st11 st12">Ae</text>
	<g id="dhrT5l_1_" class="st7">
		
			<image style="overflow:visible;" width="227" height="222" id="dhrT5l" xlink:href="8690A50CB69E1395.jpg"  transform="matrix(1 0 0 1 253.8849 -50.375)">
		</image>
	</g>
</g>
</svg>
