<?xml version="1.0" encoding="utf-8"?>
<!-- Generator: Adobe Illustrator 22.0.1, SVG Export Plug-In . SVG Version: 6.00 Build 0)  -->
<svg version="1.1" xmlns="http://www.w3.org/2000/svg" xmlns:xlink="http://www.w3.org/1999/xlink" x="0px" y="0px"
	 viewBox="0 0 200 200" style="enable-background:new 0 0 200 200;" xml:space="preserve">
<style type="text/css">
	.st0{clip-path:url(#SVGID_2_);fill:url(#SVGID_3_);}
	.st1{clip-path:url(#SVGID_2_);fill:url(#SVGID_4_);}
	.st2{clip-path:url(#SVGID_2_);fill:#A5A284;}
	.st3{clip-path:url(#SVGID_2_);fill:#499D49;}
	.st4{clip-path:url(#SVGID_2_);fill:#58AA50;}
</style>
<g id="Layer_1">
	<title>mongo</title>
</g>
<g id="Layer_2">
	<g>
		<defs>
			<circle id="SVGID_1_" cx="99.4" cy="100" r="100"/>
		</defs>
		<clipPath id="SVGID_2_">
			<use xlink:href="#SVGID_1_"  style="overflow:visible;"/>
		</clipPath>
		
			<linearGradient id="SVGID_3_" gradientUnits="userSpaceOnUse" x1="9.094947e-13" y1="199.89" x2="200" y2="-0.11" gradientTransform="matrix(1 0 0 -1 0 199.89)">
			<stop  offset="0" style="stop-color:#765843"/>
			<stop  offset="1" style="stop-color:#3F2E2A"/>
		</linearGradient>
		<path class="st0" d="M0,0h200v200H0V0z"/>
		
			<linearGradient id="SVGID_4_" gradientUnits="userSpaceOnUse" x1="98.558" y1="89.89" x2="200" y2="89.89" gradientTransform="matrix(1 0 0 -1 0 199.89)">
			<stop  offset="0" style="stop-color:#3F2E2A"/>
			<stop  offset="1" style="stop-color:#3F2E2A;stop-opacity:0"/>
		</linearGradient>
		<path class="st1" d="M200,112.4L99.2,20l-0.6,158.5l22.4,21.5H200V112.4z"/>
		<path class="st2" d="M103.6,180l-4.3-1.5c0,0,0.5-21.7-7.3-23.3c-5.2-6,0.8-255.6,19.5-0.8c0,0-6.4,3.2-7.6,8.7
			C102.8,168.6,103.6,180,103.6,180z"/>
		<path class="st3" d="M105.9,159c0,0,37.3-24.5,28.6-75.5c-8.4-37.1-28.3-49.2-30.4-53.9c-1.9-2.9-3.4-5.9-4.7-9.1l1.6,103.2
			C100.9,123.7,97.7,155.2,105.9,159"/>
		<path class="st4" d="M97.2,160.4c0,0-35-23.9-32.9-66c2-42.1,26.7-62.8,31.5-66.5c3.1-3.3,3.2-4.6,3.4-7.9
			c2.2,4.7,1.8,69.9,2.1,77.6C102.2,127.2,99.6,154.7,97.2,160.4L97.2,160.4z"/>
	</g>
</g>
</svg>
