<?xml version="1.0" encoding="utf-8"?>
<!-- Generator: Adobe Illustrator 22.0.1, SVG Export Plug-In . SVG Version: 6.00 Build 0)  -->
<svg version="1.1" id="Layer_1" xmlns="http://www.w3.org/2000/svg" xmlns:xlink="http://www.w3.org/1999/xlink" x="0px" y="0px"
	 viewBox="0 0 200 200" style="enable-background:new 0 0 200 200;" xml:space="preserve">
<style type="text/css">
	.st0{fill:url(#SVGID_1_);}
	.st1{fill:url(#SVGID_2_);}
	.st2{fill:#EA77FF;}
	.st3{fill:#2A0034;}
	.st4{fill:#261300;}
	.st5{enable-background:new    ;}
	.st6{fill:#FF7C00;}
	.st7{fill:#FFAE00;}
	.st8{fill:#EC6C00;}
	.st9{fill:#FFEFB4;}
	.st10{fill:#FED305;}
</style>
<radialGradient id="SVGID_1_" cx="71.7514" cy="73.3504" r="99.3" gradientUnits="userSpaceOnUse">
	<stop  offset="0" style="stop-color:#FFB269"/>
	<stop  offset="1" style="stop-color:#FF7C00"/>
</radialGradient>
<circle class="st0" cx="100" cy="100" r="99.3"/>
<g id="Layer_1_1_">
	<title>node</title>
</g>
<radialGradient id="SVGID_2_" cx="148" cy="-154.6" r="99.3" gradientUnits="userSpaceOnUse">
	<stop  offset="0" style="stop-color:#FFFFFF"/>
	<stop  offset="1" style="stop-color:#000000"/>
</radialGradient>
<circle class="st1" cx="148" cy="-154.6" r="99.3"/>
<g id="v1JFf8_1_">
	
		<image style="overflow:visible;enable-background:new    ;" width="187" height="192" id="v1JFf8" xlink:href="6033969A68B15022.jpg"  transform="matrix(1.0553 0 0 1.0797 -252.557 194.1798)">
	</image>
</g>
<rect x="-221.8" y="-62.6" class="st2" width="198.5" height="198.5"/>
<rect x="-214.4" y="-55.3" class="st3" width="183.8" height="183.8"/>
<circle class="st4" cx="148" cy="-154.6" r="91.9"/>
<text transform="matrix(1 0 0 1 86.9306 -110.6939)" class="st6" style="font-family:'OpenSans-Regular'; font-size:131px;">Ai</text>
<g id="wkOPj4_1_">
	
		<image style="overflow:visible;enable-background:new    ;" width="227" height="223" id="wkOPj4" xlink:href="4F70641EFB4E3992.jpg"  transform="matrix(0.9978 0 0 0.9978 266.2497 -11.2547)">
	</image>
</g>
<g id="Page-1">
	<g id="Sketch-Flat-Logo" transform="translate(-9.000000, -28.000000)">
		<g id="Group" transform="translate(9.000000, 28.000000)">
			<g id="Base">
				<polygon id="Polygon" class="st7" points="100,175.5 25.4,88.8 57.7,45 100,40.5 142.3,45 174.6,88.8 				"/>
			</g>
			<g id="Bottom-Back" transform="translate(0.000000, 160.000000)">
				<polygon id="Polygon_1_" class="st8" points="100,15.5 25.4,-71.2 174.6,-71.2 				"/>
			</g>
			<g id="Bottom-Mid" transform="translate(100.000000, 160.000000)">
				<polygon id="Polygon_2_" class="st7" points="0,15.5 -44.4,-71.2 44.4,-71.2 				"/>
			</g>
			<g id="Top-Mid" transform="translate(100.000000, 0.000000)">
				<polygon id="Polygon_3_" class="st9" points="0,40.5 -44.4,88.8 44.4,88.8 				"/>
			</g>
			<g id="Top-Side-Left" transform="translate(0.000000, 15.000000)">
				<polygon id="Polygon_4_" class="st7" points="57.7,30 41.1,52.1 25.4,73.8 55.9,73.8 				"/>
			</g>
			
				<g id="Top-Side-Right" transform="translate(440.500000, 87.500000) scale(-1, 1) translate(-440.500000, -87.500000) translate(387.000000, 15.000000)">
				<polygon id="Polygon_5_" class="st7" points="351.7,30 335.1,52.1 319.4,73.8 349.9,73.8 				"/>
			</g>
			<g id="Top-Left" transform="translate(100.000000, 0.000000)">
				<polygon id="Polygon_6_" class="st10" points="-42.3,45 -44.4,88.8 0,40.5 				"/>
			</g>
			<g id="Top-Right" transform="translate(247.000000, 0.000000)">
				<polygon id="Polygon_7_" class="st10" points="-104.7,45 -102.6,88.8 -147,40.5 				"/>
			</g>
		</g>
	</g>
</g>
</svg>
