<?xml version="1.0" encoding="utf-8"?>
<!-- Generator: Adobe Illustrator 22.0.1, SVG Export Plug-In . SVG Version: 6.00 Build 0)  -->
<svg version="1.1" id="Layer_1" xmlns="http://www.w3.org/2000/svg" xmlns:xlink="http://www.w3.org/1999/xlink" x="0px" y="0px"
	 viewBox="0 0 200 200" style="enable-background:new 0 0 200 200;" xml:space="preserve">
<style type="text/css">
	.st0{fill:url(#SVGID_1_);}
	.st1{fill:#FF2BC2;}
	.st2{fill:#EA77FF;}
	.st3{fill:#2A0034;}
	.st4{fill:#2E001E;}
	.st5{fill:#FFAE00;}
	.st6{fill:#EC6C00;}
	.st7{fill:#FFEFB4;}
	.st8{fill:#FED305;}
</style>
<radialGradient id="SVGID_1_" cx="785.9168" cy="2.5504" r="99.3" gradientUnits="userSpaceOnUse">
	<stop  offset="0" style="stop-color:#FFB269"/>
	<stop  offset="1" style="stop-color:#FF7C00"/>
</radialGradient>
<circle class="st0" cx="814.2" cy="29.2" r="99.3"/>
<g id="Layer_1_1_">
	<title>node</title>
</g>
<circle class="st1" cx="100" cy="100" r="99.3"/>
<g id="v1JFf8_1_">
	
		<image style="overflow:visible;enable-background:new    ;" width="187" height="192" id="v1JFf8" xlink:href="6033969A68B15022.jpg"  transform="matrix(1.0553 0 0 1.0797 -252.557 194.1798)">
	</image>
</g>
<rect x="-221.8" y="-62.6" class="st2" width="198.5" height="198.5"/>
<rect x="-214.4" y="-55.3" class="st3" width="183.8" height="183.8"/>
<circle class="st4" cx="100" cy="100" r="91.9"/>
<g id="wkOPj4_1_">
	
		<image style="overflow:visible;enable-background:new    ;" width="227" height="223" id="wkOPj4" xlink:href="4F70641EFB4E3992.jpg"  transform="matrix(0.9978 0 0 0.9978 266.2497 -11.2547)">
	</image>
</g>
<g id="Page-1">
	<g id="Sketch-Flat-Logo" transform="translate(-9.000000, -28.000000)">
		<g id="Group" transform="translate(9.000000, 28.000000)">
			<g id="Base">
				<polygon id="Polygon" class="st5" points="814.2,104.7 739.6,18 771.9,-25.8 814.2,-30.3 856.4,-25.8 888.8,18 				"/>
			</g>
			<g id="Bottom-Back" transform="translate(0.000000, 160.000000)">
				<polygon id="Polygon_1_" class="st6" points="814.2,-55.3 739.6,-142 888.8,-142 				"/>
			</g>
			<g id="Bottom-Mid" transform="translate(100.000000, 160.000000)">
				<polygon id="Polygon_2_" class="st5" points="714.2,-55.3 669.8,-142 758.6,-142 				"/>
			</g>
			<g id="Top-Mid" transform="translate(100.000000, 0.000000)">
				<polygon id="Polygon_3_" class="st7" points="714.2,-30.3 669.8,18 758.6,18 				"/>
			</g>
			<g id="Top-Side-Left" transform="translate(0.000000, 15.000000)">
				<polygon id="Polygon_4_" class="st5" points="771.9,-40.8 755.3,-18.7 739.6,3 770.1,3 				"/>
			</g>
			
				<g id="Top-Side-Right" transform="translate(440.500000, 87.500000) scale(-1, 1) translate(-440.500000, -87.500000) translate(387.000000, 15.000000)">
				<polygon id="Polygon_5_" class="st5" points="-362.4,-40.8 -379.1,-18.7 -394.8,3 -364.3,3 				"/>
			</g>
			<g id="Top-Left" transform="translate(100.000000, 0.000000)">
				<polygon id="Polygon_6_" class="st8" points="671.9,-25.8 669.8,18 714.2,-30.3 				"/>
			</g>
			<g id="Top-Right" transform="translate(247.000000, 0.000000)">
				<polygon id="Polygon_7_" class="st8" points="609.4,-25.8 611.6,18 567.2,-30.3 				"/>
			</g>
		</g>
	</g>
</g>
<path class="st1" d="M143.2,90.3c-1.2-0.6-2.7-0.8-4.6-0.8c-10.1,0-16.8,8.1-16.8,21.5c0,15.3,6.9,21.5,15.8,21.5
	c1.9,0,4-0.2,5.5-0.9L143.2,90.3L143.2,90.3z M107.4,111.6c0-19.4,12-34.6,31.7-34.6c1.7,0,2.6,0,4.2,0.2V55.5
	c0-0.5,0.4-0.8,0.8-0.8h12.9c0.6,0,0.8,0.2,0.8,0.7v76.2c0,2.2,0,5.1,0.4,8.2c0,0.6,0,0.7-0.5,0.9c-6.7,3.3-13.8,4.8-20.5,4.8
	C119.7,145.4,107.4,134.2,107.4,111.6L107.4,111.6z M80.1,98.1l22.4,45.2c0.4,0.7,0.2,1.3-0.5,1.3H88.1c-0.9,0-1.3-0.2-1.7-1.1
	c-5.1-11-10.3-22.4-15.7-34.2h-0.2c-4.8,11.2-10.1,23.3-15.2,34.3c-0.4,0.7-0.8,0.9-1.4,0.9H40.7c-0.8,0-0.9-0.7-0.5-1.2l21.9-43.9
	L40.9,55.8c-0.5-0.7,0-1.2,0.6-1.2h13.8c0.8,0,1.2,0.2,1.4,0.9c5,11.1,10.2,22,15,33.2h0.2c4.6-11,9.8-22.1,14.6-33
	c0.4-0.7,0.6-1.1,1.4-1.1h12.9c0.6,0,0.9,0.5,0.5,1.2L80.1,98.1L80.1,98.1z"/>
</svg>
